<svg xmlns="http://www.w3.org/2000/svg" viewBox="0 0 800 500" fill="none">
  <rect width="800" height="500" fill="#F0F9FF"/>

  <!-- Title -->
  <text x="400" y="52" text-anchor="middle" font-family="system-ui, sans-serif" font-size="22" font-weight="800" fill="#0C4A6E">영상 촬영 · 숏폼 제작</text>
  <rect x="290" y="62" width="220" height="3" fill="#0EA5E9"/>

  <!-- Step 1: 기획 -->
  <rect x="40" y="90" width="220" height="220" fill="#fff" stroke="#BAE6FD" stroke-width="1.5"/>
  <rect x="40" y="90" width="220" height="6" fill="#0EA5E9"/>
  <rect x="126" y="108" width="48" height="48" fill="#0EA5E9" opacity="0.12"/>
  <text x="150" y="128" text-anchor="middle" font-family="system-ui, sans-serif" font-size="9" font-weight="700" fill="#0EA5E9">STEP</text>
  <text x="150" y="146" text-anchor="middle" font-family="system-ui, sans-serif" font-size="18" font-weight="800" fill="#0EA5E9">01</text>
  <text x="150" y="176" text-anchor="middle" font-family="system-ui, sans-serif" font-size="16" font-weight="700" fill="#0C4A6E">기획 · 콘티</text>
  <line x1="70" y1="188" x2="230" y2="188" stroke="#BAE6FD" stroke-width="1"/>
  <rect x="60" y="200" width="6" height="6" fill="#0EA5E9"/>
  <text x="76" y="208" font-family="system-ui, sans-serif" font-size="11" fill="#4B5563">촬영 목적/방향 설정</text>
  <rect x="60" y="222" width="6" height="6" fill="#0EA5E9"/>
  <text x="76" y="230" font-family="system-ui, sans-serif" font-size="11" fill="#4B5563">콘티/스토리보드 제작</text>
  <rect x="60" y="244" width="6" height="6" fill="#0EA5E9"/>
  <text x="76" y="252" font-family="system-ui, sans-serif" font-size="11" fill="#4B5563">촬영 일정 확정</text>
  <rect x="60" y="266" width="6" height="6" fill="#0EA5E9"/>
  <text x="76" y="274" font-family="system-ui, sans-serif" font-size="11" fill="#4B5563">장비/인력 배치</text>

  <!-- Arrow -->
  <path d="M265 200 L285 200" stroke="#0EA5E9" stroke-width="2"/>
  <polygon points="285,195 295,200 285,205" fill="#0EA5E9"/>

  <!-- Step 2: 촬영 -->
  <rect x="300" y="90" width="200" height="220" fill="#fff" stroke="#BAE6FD" stroke-width="1.5"/>
  <rect x="300" y="90" width="200" height="6" fill="#0284C7"/>
  <rect x="376" y="108" width="48" height="48" fill="#0284C7" opacity="0.12"/>
  <text x="400" y="128" text-anchor="middle" font-family="system-ui, sans-serif" font-size="9" font-weight="700" fill="#0284C7">STEP</text>
  <text x="400" y="146" text-anchor="middle" font-family="system-ui, sans-serif" font-size="18" font-weight="800" fill="#0284C7">02</text>
  <text x="400" y="176" text-anchor="middle" font-family="system-ui, sans-serif" font-size="16" font-weight="700" fill="#0C4A6E">현장 촬영</text>
  <line x1="330" y1="188" x2="470" y2="188" stroke="#BAE6FD" stroke-width="1"/>
  <rect x="320" y="200" width="6" height="6" fill="#0284C7"/>
  <text x="336" y="208" font-family="system-ui, sans-serif" font-size="11" fill="#4B5563">감독 현장 디렉팅</text>
  <rect x="320" y="222" width="6" height="6" fill="#0284C7"/>
  <text x="336" y="230" font-family="system-ui, sans-serif" font-size="11" fill="#4B5563">멀티 앵글 촬영</text>
  <rect x="320" y="244" width="6" height="6" fill="#0284C7"/>
  <text x="336" y="252" font-family="system-ui, sans-serif" font-size="11" fill="#4B5563">드론/짐벌 활용</text>
  <rect x="320" y="266" width="6" height="6" fill="#0284C7"/>
  <text x="336" y="274" font-family="system-ui, sans-serif" font-size="11" fill="#4B5563">현장 모니터링</text>

  <!-- Arrow -->
  <path d="M505 200 L525 200" stroke="#0284C7" stroke-width="2"/>
  <polygon points="525,195 535,200 525,205" fill="#0284C7"/>

  <!-- Step 3: 편집 -->
  <rect x="540" y="90" width="220" height="220" fill="#fff" stroke="#BAE6FD" stroke-width="1.5"/>
  <rect x="540" y="90" width="220" height="6" fill="#0369A1"/>
  <rect x="626" y="108" width="48" height="48" fill="#0369A1" opacity="0.12"/>
  <text x="650" y="128" text-anchor="middle" font-family="system-ui, sans-serif" font-size="9" font-weight="700" fill="#0369A1">STEP</text>
  <text x="650" y="146" text-anchor="middle" font-family="system-ui, sans-serif" font-size="18" font-weight="800" fill="#0369A1">03</text>
  <text x="650" y="176" text-anchor="middle" font-family="system-ui, sans-serif" font-size="16" font-weight="700" fill="#0C4A6E">편집 · 납품</text>
  <line x1="570" y1="188" x2="730" y2="188" stroke="#BAE6FD" stroke-width="1"/>
  <rect x="560" y="200" width="6" height="6" fill="#0369A1"/>
  <text x="576" y="208" font-family="system-ui, sans-serif" font-size="11" fill="#4B5563">컷 편집/색보정</text>
  <rect x="560" y="222" width="6" height="6" fill="#0369A1"/>
  <text x="576" y="230" font-family="system-ui, sans-serif" font-size="11" fill="#4B5563">자막/효과 삽입</text>
  <rect x="560" y="244" width="6" height="6" fill="#0369A1"/>
  <text x="576" y="252" font-family="system-ui, sans-serif" font-size="11" fill="#4B5563">BGM/사운드 믹싱</text>
  <rect x="560" y="266" width="6" height="6" fill="#0369A1"/>
  <text x="576" y="274" font-family="system-ui, sans-serif" font-size="11" fill="#4B5563">플랫폼별 포맷 변환</text>

  <!-- Platform Cards -->
  <rect x="40" y="330" width="720" height="3" fill="#BAE6FD"/>
  <text x="400" y="362" text-anchor="middle" font-family="system-ui, sans-serif" font-size="13" font-weight="700" fill="#0C4A6E">숏폼 플랫폼 최적화</text>

  <rect x="40" y="380" width="140" height="100" fill="#fff" stroke="#BAE6FD" stroke-width="1"/>
  <rect x="40" y="380" width="140" height="4" fill="#E1306C"/>
  <text x="110" y="416" text-anchor="middle" font-family="system-ui, sans-serif" font-size="20" font-weight="800" fill="#E1306C">Reels</text>
  <text x="110" y="440" text-anchor="middle" font-family="system-ui, sans-serif" font-size="11" fill="#6B7280">인스타그램 릴스</text>
  <text x="110" y="462" text-anchor="middle" font-family="system-ui, sans-serif" font-size="10" fill="#9CA3AF">9:16 세로형</text>

  <rect x="200" y="380" width="140" height="100" fill="#fff" stroke="#BAE6FD" stroke-width="1"/>
  <rect x="200" y="380" width="140" height="4" fill="#FF0000"/>
  <text x="270" y="416" text-anchor="middle" font-family="system-ui, sans-serif" font-size="20" font-weight="800" fill="#FF0000">Shorts</text>
  <text x="270" y="440" text-anchor="middle" font-family="system-ui, sans-serif" font-size="11" fill="#6B7280">유튜브 쇼츠</text>
  <text x="270" y="462" text-anchor="middle" font-family="system-ui, sans-serif" font-size="10" fill="#9CA3AF">60초 이내</text>

  <rect x="360" y="380" width="140" height="100" fill="#fff" stroke="#BAE6FD" stroke-width="1"/>
  <rect x="360" y="380" width="140" height="4" fill="#000000"/>
  <text x="430" y="416" text-anchor="middle" font-family="system-ui, sans-serif" font-size="20" font-weight="800" fill="#111827">TikTok</text>
  <text x="430" y="440" text-anchor="middle" font-family="system-ui, sans-serif" font-size="11" fill="#6B7280">틱톡 영상</text>
  <text x="430" y="462" text-anchor="middle" font-family="system-ui, sans-serif" font-size="10" fill="#9CA3AF">트렌드 반영</text>

  <rect x="520" y="380" width="140" height="100" fill="#fff" stroke="#BAE6FD" stroke-width="1"/>
  <rect x="520" y="380" width="140" height="4" fill="#0EA5E9"/>
  <text x="590" y="416" text-anchor="middle" font-family="system-ui, sans-serif" font-size="20" font-weight="800" fill="#0EA5E9">Brand</text>
  <text x="590" y="440" text-anchor="middle" font-family="system-ui, sans-serif" font-size="11" fill="#6B7280">브랜드 영상</text>
  <text x="590" y="462" text-anchor="middle" font-family="system-ui, sans-serif" font-size="10" fill="#9CA3AF">16:9 가로형</text>

  <rect x="680" y="380" width="80" height="100" fill="#0EA5E9" rx="6"/>
  <text x="720" y="420" text-anchor="middle" font-family="system-ui, sans-serif" font-size="28" font-weight="800" fill="#fff">5+</text>
  <text x="720" y="445" text-anchor="middle" font-family="system-ui, sans-serif" font-size="10" fill="rgba(255,255,255,0.9)">편 제작</text>
  <text x="720" y="462" text-anchor="middle" font-family="system-ui, sans-serif" font-size="10" fill="rgba(255,255,255,0.7)">패키지</text>
</svg>