<svg xmlns="http://www.w3.org/2000/svg" viewBox="0 0 800 500" fill="none">
  <rect width="800" height="500" fill="#FDF2F8"/>

  <!-- Title -->
  <text x="400" y="48" text-anchor="middle" font-family="system-ui, sans-serif" font-size="22" font-weight="800" fill="#831843">체험단 운영 프로세스</text>
  <rect x="320" y="58" width="160" height="3" fill="#EC4899"/>

  <!-- Step 1: 모집 -->
  <rect x="30" y="90" width="136" height="190" fill="#fff" stroke="#FBCFE8" stroke-width="1.5"/>
  <rect x="30" y="90" width="136" height="5" fill="#EC4899"/>
  <rect x="74" y="104" width="48" height="48" fill="#EC4899" opacity="0.1"/>
  <text x="98" y="124" text-anchor="middle" font-family="system-ui, sans-serif" font-size="9" font-weight="700" fill="#EC4899">STEP</text>
  <text x="98" y="140" text-anchor="middle" font-family="system-ui, sans-serif" font-size="18" font-weight="800" fill="#EC4899">01</text>
  <text x="98" y="170" text-anchor="middle" font-family="system-ui, sans-serif" font-size="15" font-weight="700" fill="#831843">체험단 모집</text>
  <text x="98" y="192" text-anchor="middle" font-family="system-ui, sans-serif" font-size="11" fill="#6B7280">업종별 맞춤</text>
  <text x="98" y="208" text-anchor="middle" font-family="system-ui, sans-serif" font-size="11" fill="#6B7280">인플루언서 매칭</text>
  <text x="98" y="224" text-anchor="middle" font-family="system-ui, sans-serif" font-size="11" fill="#6B7280">월 500명+ 모집</text>
  <rect x="48" y="248" width="100" height="20" fill="#EC4899" opacity="0.1"/>
  <text x="98" y="262" text-anchor="middle" font-family="system-ui, sans-serif" font-size="10" font-weight="600" fill="#EC4899">자동 매칭</text>

  <!-- Arrow -->
  <path d="M170 185 L192 185" stroke="#EC4899" stroke-width="2"/>
  <polygon points="192,180 202,185 192,190" fill="#EC4899"/>

  <!-- Step 2: 선정 -->
  <rect x="206" y="90" width="136" height="190" fill="#fff" stroke="#FBCFE8" stroke-width="1.5"/>
  <rect x="206" y="90" width="136" height="5" fill="#DB2777"/>
  <rect x="250" y="104" width="48" height="48" fill="#DB2777" opacity="0.1"/>
  <text x="274" y="124" text-anchor="middle" font-family="system-ui, sans-serif" font-size="9" font-weight="700" fill="#DB2777">STEP</text>
  <text x="274" y="140" text-anchor="middle" font-family="system-ui, sans-serif" font-size="18" font-weight="800" fill="#DB2777">02</text>
  <text x="274" y="170" text-anchor="middle" font-family="system-ui, sans-serif" font-size="15" font-weight="700" fill="#831843">선정 / 매칭</text>
  <text x="274" y="192" text-anchor="middle" font-family="system-ui, sans-serif" font-size="11" fill="#6B7280">타깃 고객층 분석</text>
  <text x="274" y="208" text-anchor="middle" font-family="system-ui, sans-serif" font-size="11" fill="#6B7280">채널별 적합도 평가</text>
  <text x="274" y="224" text-anchor="middle" font-family="system-ui, sans-serif" font-size="11" fill="#6B7280">최적 인원 선정</text>
  <rect x="224" y="248" width="100" height="20" fill="#DB2777" opacity="0.1"/>
  <text x="274" y="262" text-anchor="middle" font-family="system-ui, sans-serif" font-size="10" font-weight="600" fill="#DB2777">AI 스코어링</text>

  <!-- Arrow -->
  <path d="M346 185 L368 185" stroke="#DB2777" stroke-width="2"/>
  <polygon points="368,180 378,185 368,190" fill="#DB2777"/>

  <!-- Step 3: 방문/체험 -->
  <rect x="382" y="90" width="136" height="190" fill="#fff" stroke="#FBCFE8" stroke-width="1.5"/>
  <rect x="382" y="90" width="136" height="5" fill="#BE185D"/>
  <rect x="426" y="104" width="48" height="48" fill="#BE185D" opacity="0.1"/>
  <text x="450" y="124" text-anchor="middle" font-family="system-ui, sans-serif" font-size="9" font-weight="700" fill="#BE185D">STEP</text>
  <text x="450" y="140" text-anchor="middle" font-family="system-ui, sans-serif" font-size="18" font-weight="800" fill="#BE185D">03</text>
  <text x="450" y="170" text-anchor="middle" font-family="system-ui, sans-serif" font-size="15" font-weight="700" fill="#831843">방문 / 체험</text>
  <text x="450" y="192" text-anchor="middle" font-family="system-ui, sans-serif" font-size="11" fill="#6B7280">방문 일정 조율</text>
  <text x="450" y="208" text-anchor="middle" font-family="system-ui, sans-serif" font-size="11" fill="#6B7280">체험 가이드라인</text>
  <text x="450" y="224" text-anchor="middle" font-family="system-ui, sans-serif" font-size="11" fill="#6B7280">현장 관리 지원</text>
  <rect x="400" y="248" width="100" height="20" fill="#BE185D" opacity="0.1"/>
  <text x="450" y="262" text-anchor="middle" font-family="system-ui, sans-serif" font-size="10" font-weight="600" fill="#BE185D">스케줄 관리</text>

  <!-- Arrow -->
  <path d="M522 185 L544 185" stroke="#BE185D" stroke-width="2"/>
  <polygon points="544,180 554,185 544,190" fill="#BE185D"/>

  <!-- Step 4: 리뷰 작성 -->
  <rect x="558" y="90" width="210" height="190" fill="#fff" stroke="#FBCFE8" stroke-width="1.5"/>
  <rect x="558" y="90" width="210" height="5" fill="#9D174D"/>
  <rect x="639" y="104" width="48" height="48" fill="#9D174D" opacity="0.1"/>
  <text x="663" y="124" text-anchor="middle" font-family="system-ui, sans-serif" font-size="9" font-weight="700" fill="#9D174D">STEP</text>
  <text x="663" y="140" text-anchor="middle" font-family="system-ui, sans-serif" font-size="18" font-weight="800" fill="#9D174D">04</text>
  <text x="663" y="170" text-anchor="middle" font-family="system-ui, sans-serif" font-size="15" font-weight="700" fill="#831843">리뷰 작성</text>
  <text x="663" y="192" text-anchor="middle" font-family="system-ui, sans-serif" font-size="11" fill="#6B7280">품질 가이드 제공</text>
  <text x="663" y="208" text-anchor="middle" font-family="system-ui, sans-serif" font-size="11" fill="#6B7280">SEO 키워드 반영</text>
  <text x="663" y="224" text-anchor="middle" font-family="system-ui, sans-serif" font-size="11" fill="#6B7280">48시간 내 게시</text>
  <rect x="613" y="248" width="100" height="20" fill="#9D174D" opacity="0.1"/>
  <text x="663" y="262" text-anchor="middle" font-family="system-ui, sans-serif" font-size="10" font-weight="600" fill="#9D174D">품질 검수</text>

  <!-- Bottom Divider -->
  <rect x="40" y="310" width="728" height="3" fill="#FBCFE8"/>

  <!-- Result Cards -->
  <rect x="40" y="332" width="170" height="150" fill="#fff" stroke="#FBCFE8" stroke-width="1"/>
  <text x="125" y="370" text-anchor="middle" font-family="system-ui, sans-serif" font-size="11" font-weight="600" fill="#EC4899" letter-spacing="0.1em">블로그 체험단</text>
  <text x="125" y="400" text-anchor="middle" font-family="system-ui, sans-serif" font-size="26" font-weight="800" fill="#831843">92%</text>
  <text x="125" y="420" text-anchor="middle" font-family="system-ui, sans-serif" font-size="11" fill="#6B7280">리뷰 작성률</text>
  <rect x="65" y="440" width="120" height="6" fill="#FCE7F3"/>
  <rect x="65" y="440" width="110" height="6" fill="#EC4899"/>
  <text x="125" y="462" text-anchor="middle" font-family="system-ui, sans-serif" font-size="10" fill="#9CA3AF">네이버 블로그 중심</text>

  <rect x="225" y="332" width="170" height="150" fill="#fff" stroke="#FBCFE8" stroke-width="1"/>
  <text x="310" y="370" text-anchor="middle" font-family="system-ui, sans-serif" font-size="11" font-weight="600" fill="#DB2777" letter-spacing="0.1em">인스타 체험단</text>
  <text x="310" y="400" text-anchor="middle" font-family="system-ui, sans-serif" font-size="26" font-weight="800" fill="#831843">3.5x</text>
  <text x="310" y="420" text-anchor="middle" font-family="system-ui, sans-serif" font-size="11" fill="#6B7280">자연 유입 증가</text>
  <rect x="250" y="440" width="120" height="6" fill="#FCE7F3"/>
  <rect x="250" y="440" width="105" height="6" fill="#DB2777"/>
  <text x="310" y="462" text-anchor="middle" font-family="system-ui, sans-serif" font-size="10" fill="#9CA3AF">피드 + 릴스 커버</text>

  <rect x="410" y="332" width="170" height="150" fill="#fff" stroke="#FBCFE8" stroke-width="1"/>
  <text x="495" y="370" text-anchor="middle" font-family="system-ui, sans-serif" font-size="11" font-weight="600" fill="#BE185D" letter-spacing="0.1em">유튜브 체험단</text>
  <text x="495" y="400" text-anchor="middle" font-family="system-ui, sans-serif" font-size="26" font-weight="800" fill="#831843">500+</text>
  <text x="495" y="420" text-anchor="middle" font-family="system-ui, sans-serif" font-size="11" fill="#6B7280">월 체험단 모집</text>
  <rect x="435" y="440" width="120" height="6" fill="#FCE7F3"/>
  <rect x="435" y="440" width="96" height="6" fill="#BE185D"/>
  <text x="495" y="462" text-anchor="middle" font-family="system-ui, sans-serif" font-size="10" fill="#9CA3AF">쇼츠 + 리뷰 영상</text>

  <rect x="595" y="332" width="170" height="150" fill="#fff" stroke="#FBCFE8" stroke-width="1"/>
  <text x="680" y="370" text-anchor="middle" font-family="system-ui, sans-serif" font-size="11" font-weight="600" fill="#9D174D" letter-spacing="0.1em">통합 성과</text>
  <text x="680" y="400" text-anchor="middle" font-family="system-ui, sans-serif" font-size="26" font-weight="800" fill="#831843">48h</text>
  <text x="680" y="420" text-anchor="middle" font-family="system-ui, sans-serif" font-size="11" fill="#6B7280">리뷰 게시 평균</text>
  <rect x="620" y="440" width="120" height="6" fill="#FCE7F3"/>
  <rect x="620" y="440" width="120" height="6" fill="#9D174D"/>
  <text x="680" y="462" text-anchor="middle" font-family="system-ui, sans-serif" font-size="10" fill="#9CA3AF">전 채널 통합 관리</text>
</svg>